<?xml version="1.0" standalone="no"?>
<!DOCTYPE svg PUBLIC "-//W3C//DTD SVG 20010904//EN"
 "http://www.w3.org/TR/2001/REC-SVG-20010904/DTD/svg10.dtd">
<svg version="1.0" xmlns="http://www.w3.org/2000/svg"
 width="1107.000000pt" height="1280.000000pt" viewBox="0 0 1107.000000 1280.000000"
 preserveAspectRatio="xMidYMid meet">
<metadata>
Created by potrace 1.15, written by Peter Selinger 2001-2017
</metadata>
<g transform="translate(0.000000,1280.000000) scale(0.100000,-0.100000)"
fill="#000000" stroke="none">
<path d="M4196 12785 c-352 -97 -759 -612 -1236 -1565 -218 -435 -337 -710
-487 -1125 -404 -1115 -613 -1898 -663 -2484 l-10 -123 -46 -51 c-51 -56 -93
-135 -115 -212 -19 -68 -17 -188 5 -252 l17 -52 -60 -109 c-210 -376 -465
-1015 -761 -1902 -255 -764 -306 -943 -470 -1640 -173 -734 -282 -1307 -341
-1790 -26 -212 -32 -578 -11 -675 28 -126 58 -186 122 -245 l39 -35 -9 -107
c-17 -208 14 -346 90 -396 37 -25 68 -26 170 -3 25 6 199 10 391 11 393 0 689
17 1054 60 303 36 388 44 755 70 157 11 368 29 470 40 348 37 446 41 1280 50
1156 13 1849 38 2105 76 289 43 496 125 632 249 l68 62 0 79 c0 107 -32 171
-134 274 -173 174 -420 308 -991 538 -124 49 -387 161 -585 247 -432 189 -415
181 -540 241 l-100 47 115 18 c569 90 1176 134 2415 174 1321 43 1557 62 2220
175 885 152 1421 331 1475 495 26 78 -29 144 -184 219 -174 84 -448 161 -786
220 -825 144 -1578 241 -3315 426 -1308 139 -2124 234 -2355 275 -135 23 -660
128 -657 131 11 11 614 99 877 128 460 51 1034 91 1680 116 801 30 1077 35
2092 35 l1078 0 0 168 0 167 -122 0 c-496 0 -2729 -85 -3703 -140 -962 -55
-1949 -160 -2370 -251 -229 -50 -396 -110 -452 -162 -30 -27 -30 -71 1 -102
109 -108 597 -228 1331 -324 282 -38 636 -73 1900 -191 1939 -181 2948 -319
3945 -540 534 -119 632 -254 253 -349 -280 -70 -605 -111 -1393 -175 -736 -61
-973 -73 -2385 -126 -825 -31 -1395 -65 -1849 -111 -292 -29 -438 -68 -491
-131 -128 -152 248 -383 1220 -751 260 -99 446 -181 725 -323 275 -139 333
-177 453 -293 59 -57 104 -108 100 -111 -12 -10 -196 -57 -293 -74 -98 -18
-290 -40 -470 -56 -323 -27 -605 -33 -1540 -35 -958 -2 -1051 -4 -1305 -35
-90 -11 -355 -34 -580 -50 -245 -17 -490 -40 -651 -60 -175 -22 -337 -36 -588
-50 -209 -12 -516 -13 -516 -2 1 22 32 41 81 51 240 50 535 495 944 1421 233
529 571 1396 718 1845 428 1303 675 2196 730 2635 l13 104 49 29 c168 98 250
291 201 475 l-15 53 64 97 c291 447 683 1424 1029 2567 278 922 422 1706 403
2209 -14 375 -95 617 -262 783 -138 135 -312 191 -469 148z m-869 -8700 c-15
-14 -33 -25 -40 -25 -7 0 1 12 16 25 15 14 33 25 40 25 7 0 -1 -12 -16 -25z"/>
</g>
</svg>
